<svg width="18" height="18" viewBox="0 0 18 18" fill="none" xmlns="http://www.w3.org/2000/svg">
<path d="M4.0017 3.0017L4.0017 15.0017L10.0017 15.0017V12.0017H12.0017V15.0017H14.0017L14.0017 3.0017C14.0097 2.86829 13.9894 2.73469 13.9419 2.60973C13.8945 2.48477 13.8211 2.37129 13.7266 2.27678C13.6321 2.18228 13.5186 2.10889 13.3937 2.06147C13.2687 2.01405 13.1351 1.99368 13.0017 2.0017L5.0017 2.0017C4.86829 1.99368 4.73469 2.01405 4.60973 2.06147C4.48477 2.10889 4.37129 2.18228 4.27678 2.27678C4.18228 2.37129 4.10889 2.48477 4.06147 2.60973C4.01405 2.73469 3.99368 2.86829 4.0017 3.0017ZM8.0017 14.0017H6.0017V12.0017H8.0017V14.0017ZM8.0017 10.0017H6.0017L6.0017 8.0017H8.0017V10.0017ZM8.0017 6.0017L6.0017 6.0017V4.0017H8.0017V6.0017ZM12.0017 10.0017H10.0017V8.0017H12.0017V10.0017ZM12.0017 6.0017H10.0017V4.0017L12.0017 4.0017V6.0017Z" fill="#333333"/>
</svg>
