<svg width="30" height="30" viewBox="0 0 30 30" fill="none" xmlns="http://www.w3.org/2000/svg">
<path d="M3.3335 11.6666C3.3335 12.5871 4.07969 13.3333 5.00016 13.3333C5.92064 13.3333 6.66683 12.5871 6.66683 11.6666L6.66683 6.66659L11.6668 6.66659C12.5873 6.66659 13.3335 5.92039 13.3335 4.99992C13.3335 4.07944 12.5873 3.33325 11.6668 3.33325H3.3335V11.6666Z" fill="currentColor"/>
<path d="M26.6668 11.6666C26.6668 12.5871 25.9206 13.3333 25.0002 13.3333C24.0797 13.3333 23.3335 12.5871 23.3335 11.6666L23.3335 6.66659L18.3335 6.66659C17.413 6.66659 16.6668 5.92039 16.6668 4.99992C16.6668 4.07944 17.413 3.33325 18.3335 3.33325H26.6668L26.6668 11.6666Z" fill="currentColor"/>
<path d="M13.3335 24.9999C13.3335 25.9204 12.5873 26.6666 11.6668 26.6666H3.3335V18.3333C3.3335 17.4128 4.07969 16.6666 5.00016 16.6666C5.92064 16.6666 6.66683 17.4128 6.66683 18.3333V23.3333H11.6668C12.5873 23.3333 13.3335 24.0794 13.3335 24.9999Z" fill="currentColor"/>
<path d="M18.3335 26.6666C17.413 26.6666 16.6668 25.9204 16.6668 24.9999C16.6668 24.0794 17.413 23.3333 18.3335 23.3333H23.3335V18.3333C23.3335 17.4128 24.0797 16.6666 25.0002 16.6666C25.9206 16.6666 26.6668 17.4128 26.6668 18.3333V26.6666H18.3335Z" fill="currentColor"/>
</svg>
