<svg viewBox='0 0 20 20' xmlns='http://www.w3.org/2000/svg'>
  <path d="M14.434,7.688c0.213,0.407 0.371,0.848 0.466,1.312l0.1,0c0,0 1,0 1,1c0,1 -1,1 -1,1l-0.1,0c-0.4,1.96 -1.94,3.5 -3.9,3.9l0,0.1c0,0 0,1 -1,1c-1,0 -1,-1 -1,-1l0,-0.1c-0.477,-0.097 -0.93,-0.262 -1.347,-0.484c0.383,-0.377 0.767,-0.753 1.151,-1.129c0.374,0.138 0.777,0.213 1.196,0.213c1.92,0 3.5,-1.58 3.5,-3.5c0,-0.403 -0.07,-0.791 -0.197,-1.153c0.379,-0.384 0.756,-0.77 1.131,-1.159Zm-9.334,1.312c0.4,-1.961 1.94,-3.5 3.9,-3.9l0,-0.1c0,0 0,-1 1,-1c1,0 1,1 1,1l0,0.1c0.477,0.097 0.93,0.262 1.347,0.484c-0.383,0.377 -0.767,0.753 -1.151,1.129c-0.374,-0.138 -0.777,-0.213 -1.196,-0.213c-1.92,0 -3.5,1.58 -3.5,3.5c0,0.403 0.07,0.791 0.197,1.153c-0.379,0.384 -0.756,0.77 -1.131,1.159c-0.213,-0.407 -0.371,-0.848 -0.466,-1.312l-0.1,0c-0.005,0 -1,-0.003 -1,-1c0,-0.997 0.995,-1 1,-1l0.1,0Z" />
  <path d="M14,5l1,1l-9,9l-1,-1l9,-9Z" />
</svg>
