{
    "asset": {
        "copyright": "2018 (c) Adobe Systems Inc.",
        "generator": "Adobe Dimension - b417c10282aa66313155856d4a54e84f3f388647",
        "version": "2.0"
    },
    "accessors": [
        {
            "bufferView": 0,
            "componentType": 5126,
            "count": 4598,
            "type": "VEC3",
            "max": [
                10.647041320800781,
                1.6470409631729126,
                0.6470409631729126
            ],
            "min": [
                -10.647041320800781,
                0.3529590368270874,
                -0.6470409631729126
            ],
            "byteOffset": 0
        },
        {
            "bufferView": 1,
            "componentType": 5126,
            "count": 4598,
            "type": "VEC3",
            "byteOffset": 0
        },
        {
            "bufferView": 2,
            "componentType": 5126,
            "count": 4598,
            "type": "VEC2",
            "byteOffset": 0
        },
        {
            "bufferView": 3,
            "componentType": 5125,
            "count": 25344,
            "type": "SCALAR",
            "max": [
                4597
            ],
            "min": [
                0
            ],
            "byteOffset": 0
        },
        {
            "bufferView": 4,
            "componentType": 5126,
            "count": 4598,
            "type": "VEC3",
            "max": [
                10.647041320800781,
                -0.3529590368270874,
                0.6470409631729126
            ],
            "min": [
                -10.647041320800781,
                -1.6470409631729126,
                -0.6470409631729126
            ],
            "byteOffset": 0
        },
        {
            "bufferView": 5,
            "componentType": 5126,
            "count": 4598,
            "type": "VEC2",
            "byteOffset": 0
        }
    ],
    "buffers": [
        {
            "name": "EnvironmentTest_binary",
            "byteLength": 357824,
            "uri": "data:application/octet-stream;base64,"
        }
    ],
    "bufferViews": [
        {
            "buffer": 0,
            "byteOffset": 0,
            "byteLength": 55176,
            "target": 34962,
            "byteStride": 12
        },
        {
            "buffer": 0,
            "byteOffset": 55176,
            "byteLength": 55176,
            "target": 34962,
            "byteStride": 12
        },
        {
            "buffer": 0,
            "byteOffset": 110352,
            "byteLength": 36784,
            "target": 34962,
            "byteStride": 8
        },
        {
            "buffer": 0,
            "byteOffset": 147136,
            "byteLength": 101376,
            "target": 34963
        },
        {
            "buffer": 0,
            "byteOffset": 248512,
            "byteLength": 55176,
            "target": 34962,
            "byteStride": 12
        },
        {
            "buffer": 0,
            "byteOffset": 303688,
            "byteLength": 36784,
            "target": 34962,
            "byteStride": 8
        },
        {
            "buffer": 0,
            "byteOffset": 340472,
            "byteLength": 8661
        },
        {
            "buffer": 0,
            "byteOffset": 349136,
            "byteLength": 8685
        }
    ],
    "materials": [
        {
            "pbrMetallicRoughness": {
                "metallicRoughnessTexture": {
                    "index": 0,
                    "texCoord": 0
                },
                "baseColorFactor": [
                    1,
                    1,
                    1,
                    1
                ],
                "metallicFactor": 1,
                "roughnessFactor": 1
            },
            "name": "MetallicSpheresMat",
            "doubleSided": true,
            "emissiveFactor": [
                0,
                0,
                0
            ],
            "alphaMode": "OPAQUE"
        },
        {
            "pbrMetallicRoughness": {
                "metallicRoughnessTexture": {
                    "index": 1,
                    "texCoord": 0
                },
                "baseColorFactor": [
                    1,
                    1,
                    1,
                    1
                ],
                "metallicFactor": 1,
                "roughnessFactor": 1
            },
            "name": "DielectricSpheresMat",
            "doubleSided": true,
            "emissiveFactor": [
                0,
                0,
                0
            ],
            "alphaMode": "OPAQUE"
        },
        {
            "pbrMetallicRoughness": {
                "baseColorFactor": [
                    0,
                    0,
                    0,
                    1
                ],
                "metallicRoughnessTexture": {
                    "index": 1,
                    "texCoord": 0
                },
                "metallicFactor": 1,
                "roughnessFactor": 1
            },
            "name": "DielectricSpheresMat",
            "doubleSided": true,
            "emissiveFactor": [
                0,
                0,
                0
            ],
            "alphaMode": "OPAQUE"
        }
    ],
    "meshes": [
        {
            "name": "Metallic0_N3D",
            "primitives": [
                {
                    "attributes": {
                        "POSITION": 0,
                        "NORMAL": 1,
                        "TEXCOORD_0": 2
                    },
                    "indices": 3,
                    "material": 0,
                    "mode": 4
                }
            ]
        },
        {
            "name": "Dielectric0_N3D2",
            "primitives": [
                {
                    "attributes": {
                        "TEXCOORD_0": 5,
                        "NORMAL": 1,
                        "POSITION": 4
                    },
                    "indices": 3,
                    "material": 1,
                    "mode": 4
                }
            ]
        },
        {
            "name": "Dielectric0_N3D",
            "primitives": [
                {
                    "attributes": {
                        "POSITION": 4,
                        "NORMAL": 1,
                        "TEXCOORD_0": 5
                    },
                    "indices": 3,
                    "material": 2,
                    "mode": 4
                }
            ]
        }
    ],
    "nodes": [
        {
            "matrix": [
                0.9999533295631409,
                3.16067598760128e-8,
                0.009662099182605743,
                0,
                0.0014864075928926468,
                0.9880954027175903,
                -0.15383504331111908,
                0,
                -0.009547080844640732,
                0.15384222567081451,
                0.988049328327179,
                0,
                -0.7599077224731445,
                7.708760738372803,
                27.743375778198242,
                1
            ],
            "camera": 0,
            "name": "render_camera_n3d"
        },
        {
            "children": [
                2,
                3,
                4
            ],
            "matrix": [
                1,
                0,
                0,
                0,
                0,
                1,
                0,
                0,
                0,
                0,
                1,
                0,
                -0.5564079284667969,
                4.774584770202637,
                -1.0962677001953125,
                1
            ],
            "name": "ENV_Spheres"
        },
        {
            "mesh": 0,
            "name": "Metallic0"
        },
        {
            "mesh": 1,
            "name": "Dielectric0"
        },
        {
            "matrix": [
                1,
                0,
                0,
                0,
                0,
                1,
                0,
                0,
                0,
                0,
                1,
                0,
                0,
                -1.985867977142334,
                0,
                1
            ],
            "mesh": 2,
            "name": "Dielectric0-Black"
        }
    ],
    "scenes": [
        {
            "nodes": [
                0,
                1
            ],
            "name": "scene"
        }
    ],
    "cameras": [
        {
            "perspective": {
                "znear": 0.0010000000474974513,
                "yfov": 0.6024156808853149,
                "zfar": 200,
                "aspectRatio": 1.3333333730697632
            },
            "type": "perspective",
            "name": "render_camera"
        }
    ],
    "images": [
        {
            "name": "tmp_image_pie_dc1e_1a22_fbf9roughness_map_roughness_tmp_image_pie_dc1e_1a22_fbf9metal_map_metallic_0",
            "mimeType": "image/jpeg",
            "bufferView": 6
        },
        {
            "name": "tmp_image_pie_b20b_ebb4_317droughness_map2_roughness_tmp_image_pie_b20b_ebb4_317dmetal_map2_metallic_1",
            "mimeType": "image/jpeg",
            "bufferView": 7
        }
    ],
    "samplers": [
        {
            "wrapS": 10497,
            "wrapT": 10497
        },
        {
            "wrapS": 10497,
            "wrapT": 10497
        }
    ],
    "textures": [
        {
            "name": "tmp_image_pie_dc1e_1a22_fbf9roughness_map_roughness_tmp_image_pie_dc1e_1a22_fbf9metal_map_metallic_0_texture",
            "sampler": 0,
            "source": 0
        },
        {
            "name": "tmp_image_pie_b20b_ebb4_317droughness_map2_roughness_tmp_image_pie_b20b_ebb4_317dmetal_map2_metallic_1_texture",
            "sampler": 1,
            "source": 1
        }
    ],
    "scene": 0
}