{
    "asset" : {
        "generator" : "Khronos glTF Blender I/O v1.8.19",
        "version" : "2.0"
    },
    "scene" : 0,
    "scenes" : [
        {
            "name" : "Scene",
            "nodes" : [
                0
            ]
        }
    ],
    "nodes" : [
        {
            "mesh" : 0,
            "name" : "Cube.038",
            "scale" : [
                1,
                0.5055232048034668,
                1
            ]
        }
    ],
    "meshes" : [
        {
            "name" : "Cube.003",
            "primitives" : [
                {
                    "attributes" : {
                        "POSITION" : 0,
                        "NORMAL" : 1
                    },
                    "indices" : 2
                }
            ]
        }
    ],
    "accessors" : [
        {
            "bufferView" : 0,
            "componentType" : 5126,
            "count" : 603,
            "max" : [
                1.2799350023269653,
                6.880007743835449,
                1.280165672302246
            ],
            "min" : [
                -1.2800782918930054,
                0.024712538346648216,
                -1.2802660465240479
            ],
            "type" : "VEC3"
        },
        {
            "bufferView" : 1,
            "componentType" : 5126,
            "count" : 603,
            "type" : "VEC3"
        },
        {
            "bufferView" : 2,
            "componentType" : 5123,
            "count" : 1257,
            "type" : "SCALAR"
        }
    ],
    "bufferViews" : [
        {
            "buffer" : 0,
            "byteLength" : 7236,
            "byteOffset" : 0
        },
        {
            "buffer" : 0,
            "byteLength" : 7236,
            "byteOffset" : 7236
        },
        {
            "buffer" : 0,
            "byteLength" : 2514,
            "byteOffset" : 14472
        }
    ],
    "buffers" : [
        {
            "byteLength" : 16988,
            "uri" : "data:application/octet-stream;base64,"
        }
    ]
}
